<?xml version="1.0" encoding="UTF-8" standalone="no"?>
<!DOCTYPE svg PUBLIC "-//W3C//DTD SVG 1.1//EN"
 "http://www.w3.org/Graphics/SVG/1.1/DTD/svg11.dtd">
<!-- Generated by graphviz version 2.30.1 (20180420.1509)
 -->
<!-- Title: full Pages: 1 -->
<svg width="13342pt" height="368pt"
 viewBox="0.00 0.00 13342.00 368.00" xmlns="http://www.w3.org/2000/svg" xmlns:xlink="http://www.w3.org/1999/xlink">
<g id="graph0" class="graph" transform="scale(1 1) rotate(0) translate(4 364)">
<title>full</title>
<polygon fill="white" stroke="white" points="-4,5 -4,-364 13339,-364 13339,5 -4,5"/>
<!-- 0 -->
<g id="node1" class="node"><title>0</title>
<ellipse fill="none" stroke="black" cx="195" cy="-312" rx="195.303" ry="48.1667"/>
<text text-anchor="middle" x="195" y="-330.8" font-family="Times,serif" font-size="14.00">&quot;uid=56726e0d&#45;a684&#45;4419&#45;95bf&#45;162469634e2b</text>
<text text-anchor="middle" x="195" y="-315.8" font-family="Times,serif" font-size="14.00">namespace=kube&#45;system</text>
<text text-anchor="middle" x="195" y="-300.8" font-family="Times,serif" font-size="14.00">Pod.v1/etcd&#45;master</text>
<text text-anchor="middle" x="195" y="-285.8" font-family="Times,serif" font-size="14.00">&quot;</text>
</g>
<!-- 45 -->
<g id="node46" class="node"><title>45</title>
<ellipse fill="none" stroke="black" cx="1211" cy="-180" rx="195.242" ry="48.1667"/>
<text text-anchor="middle" x="1211" y="-198.8" font-family="Times,serif" font-size="14.00">&quot;uid=0d51b4b9&#45;6254&#45;48a5&#45;ac11&#45;b4c3c4e0c0e1</text>
<text text-anchor="middle" x="1211" y="-183.8" font-family="Times,serif" font-size="14.00">namespace=</text>
<text text-anchor="middle" x="1211" y="-168.8" font-family="Times,serif" font-size="14.00">Node.v1/master</text>
<text text-anchor="middle" x="1211" y="-153.8" font-family="Times,serif" font-size="14.00">&quot;</text>
</g>
<!-- 0&#45;&gt;45 -->
<g id="edge1" class="edge"><title>0&#45;&gt;45</title>
<path fill="none" stroke="black" d="M330.994,-277.35C353.933,-272.385 377.574,-267.704 400,-264 608.074,-229.635 848.683,-207.155 1013.46,-194.367"/>
<polygon fill="black" stroke="black" points="1014.01,-197.836 1023.71,-193.577 1013.47,-190.856 1014.01,-197.836"/>
</g>
<!-- 1 -->
<g id="node2" class="node"><title>1</title>
<ellipse fill="none" stroke="black" cx="2666" cy="-180" rx="195.242" ry="48.1667"/>
<text text-anchor="middle" x="2666" y="-198.8" font-family="Times,serif" font-size="14.00">&quot;uid=b58c3d6e&#45;3d62&#45;4015&#45;b493&#45;f665dc285a9a</text>
<text text-anchor="middle" x="2666" y="-183.8" font-family="Times,serif" font-size="14.00">namespace=kube&#45;system</text>
<text text-anchor="middle" x="2666" y="-168.8" font-family="Times,serif" font-size="14.00">Service.v1/kube&#45;dns</text>
<text text-anchor="middle" x="2666" y="-153.8" font-family="Times,serif" font-size="14.00">&quot;</text>
</g>
<!-- 2 -->
<g id="node3" class="node"><title>2</title>
<ellipse fill="none" stroke="black" cx="3151" cy="-312" rx="241.246" ry="48.1667"/>
<text text-anchor="middle" x="3151" y="-330.8" font-family="Times,serif" font-size="14.00">&quot;uid=4b04b48a&#45;df5a&#45;4ee0&#45;a226&#45;0c7c380d36d0</text>
<text text-anchor="middle" x="3151" y="-315.8" font-family="Times,serif" font-size="14.00">namespace=kube&#45;system</text>
<text text-anchor="middle" x="3151" y="-300.8" font-family="Times,serif" font-size="14.00">ControllerRevision.v1.apps/kube&#45;flannel&#45;ds&#45;arm&#45;bbd455f7c</text>
<text text-anchor="middle" x="3151" y="-285.8" font-family="Times,serif" font-size="14.00">&quot;</text>
</g>
<!-- 28 -->
<g id="node29" class="node"><title>28</title>
<ellipse fill="none" stroke="black" cx="3151" cy="-180" rx="194.182" ry="48.1667"/>
<text text-anchor="middle" x="3151" y="-198.8" font-family="Times,serif" font-size="14.00">&quot;uid=645a26a1&#45;fabb&#45;4e9b&#45;8892&#45;6e178bd77be9</text>
<text text-anchor="middle" x="3151" y="-183.8" font-family="Times,serif" font-size="14.00">namespace=kube&#45;system</text>
<text text-anchor="middle" x="3151" y="-168.8" font-family="Times,serif" font-size="14.00">DaemonSet.v1.apps/kube&#45;flannel&#45;ds&#45;arm</text>
<text text-anchor="middle" x="3151" y="-153.8" font-family="Times,serif" font-size="14.00">&quot;</text>
</g>
<!-- 2&#45;&gt;28 -->
<g id="edge2" class="edge"><title>2&#45;&gt;28</title>
<path fill="none" stroke="black" d="M3151,-263.699C3151,-255.544 3151,-246.987 3151,-238.597"/>
<polygon fill="black" stroke="black" points="3154.5,-238.483 3151,-228.483 3147.5,-238.483 3154.5,-238.483"/>
</g>
<!-- 3 -->
<g id="node4" class="node"><title>3</title>
<ellipse fill="none" stroke="black" cx="3796" cy="-180" rx="194.182" ry="48.1667"/>
<text text-anchor="middle" x="3796" y="-198.8" font-family="Times,serif" font-size="14.00">&quot;uid=d140fa3d&#45;3864&#45;4f0c&#45;8556&#45;828c5b2c4bb2</text>
<text text-anchor="middle" x="3796" y="-183.8" font-family="Times,serif" font-size="14.00">namespace=</text>
<text text-anchor="middle" x="3796" y="-168.8" font-family="Times,serif" font-size="14.00">Node.v1/node2</text>
<text text-anchor="middle" x="3796" y="-153.8" font-family="Times,serif" font-size="14.00">&quot;</text>
</g>
<!-- 4 -->
<g id="node5" class="node"><title>4</title>
<ellipse fill="none" stroke="black" cx="4437" cy="-180" rx="234.14" ry="48.1667"/>
<text text-anchor="middle" x="4437" y="-198.8" font-family="Times,serif" font-size="14.00">&quot;uid=5cc49457&#45;19b4&#45;40eb&#45;89e4&#45;50a7b5b40d7b</text>
<text text-anchor="middle" x="4437" y="-183.8" font-family="Times,serif" font-size="14.00">namespace=kubernetes&#45;dashboard</text>
<text text-anchor="middle" x="4437" y="-168.8" font-family="Times,serif" font-size="14.00">ReplicaSet.v1.apps/dashboard&#45;metrics&#45;scraper&#45;bb46cc778</text>
<text text-anchor="middle" x="4437" y="-153.8" font-family="Times,serif" font-size="14.00">&quot;</text>
</g>
<!-- 15 -->
<g id="node16" class="node"><title>15</title>
<ellipse fill="none" stroke="black" cx="4437" cy="-48" rx="195.303" ry="48.1667"/>
<text text-anchor="middle" x="4437" y="-66.8" font-family="Times,serif" font-size="14.00">&quot;uid=d7c292d4&#45;d0e2&#45;4cda&#45;9177&#45;baf043e7d8cc</text>
<text text-anchor="middle" x="4437" y="-51.8" font-family="Times,serif" font-size="14.00">namespace=kubernetes&#45;dashboard</text>
<text text-anchor="middle" x="4437" y="-36.8" font-family="Times,serif" font-size="14.00">Deployment.v1.apps/dashboard&#45;metrics&#45;scraper</text>
<text text-anchor="middle" x="4437" y="-21.8" font-family="Times,serif" font-size="14.00">&quot;</text>
</g>
<!-- 4&#45;&gt;15 -->
<g id="edge3" class="edge"><title>4&#45;&gt;15</title>
<path fill="none" stroke="black" d="M4437,-131.699C4437,-123.544 4437,-114.987 4437,-106.597"/>
<polygon fill="black" stroke="black" points="4440.5,-106.483 4437,-96.4834 4433.5,-106.483 4440.5,-106.483"/>
</g>
<!-- 5 -->
<g id="node6" class="node"><title>5</title>
<ellipse fill="none" stroke="black" cx="3603" cy="-312" rx="192" ry="48.1667"/>
<text text-anchor="middle" x="3603" y="-330.8" font-family="Times,serif" font-size="14.00">&quot;uid=f5aec573&#45;d8d8&#45;47aa&#45;ada1&#45;707aa2a061d9</text>
<text text-anchor="middle" x="3603" y="-315.8" font-family="Times,serif" font-size="14.00">namespace=</text>
<text text-anchor="middle" x="3603" y="-300.8" font-family="Times,serif" font-size="14.00">CSINode.v1.storage.k8s.io/node2</text>
<text text-anchor="middle" x="3603" y="-285.8" font-family="Times,serif" font-size="14.00">&quot;</text>
</g>
<!-- 5&#45;&gt;3 -->
<g id="edge4" class="edge"><title>5&#45;&gt;3</title>
<path fill="none" stroke="black" d="M3668.88,-266.625C3685.87,-255.184 3704.26,-242.791 3721.65,-231.082"/>
<polygon fill="black" stroke="black" points="3723.75,-233.885 3730.09,-225.396 3719.84,-228.079 3723.75,-233.885"/>
</g>
<!-- 6 -->
<g id="node7" class="node"><title>6</title>
<ellipse fill="none" stroke="black" cx="603" cy="-312" rx="194.182" ry="48.1667"/>
<text text-anchor="middle" x="603" y="-330.8" font-family="Times,serif" font-size="14.00">&quot;uid=45eaa347&#45;b18c&#45;4c89&#45;851c&#45;257d618e21f3</text>
<text text-anchor="middle" x="603" y="-315.8" font-family="Times,serif" font-size="14.00">namespace=kube&#45;system</text>
<text text-anchor="middle" x="603" y="-300.8" font-family="Times,serif" font-size="14.00">Pod.v1/kube&#45;controller&#45;manager&#45;master</text>
<text text-anchor="middle" x="603" y="-285.8" font-family="Times,serif" font-size="14.00">&quot;</text>
</g>
<!-- 6&#45;&gt;45 -->
<g id="edge5" class="edge"><title>6&#45;&gt;45</title>
<path fill="none" stroke="black" d="M741.851,-278.359C763.31,-273.457 785.236,-268.531 806,-264 886.533,-246.428 976.317,-227.918 1050.84,-212.848"/>
<polygon fill="black" stroke="black" points="1051.68,-216.251 1060.79,-210.84 1050.29,-209.389 1051.68,-216.251"/>
</g>
<!-- 7 -->
<g id="node8" class="node"><title>7</title>
<ellipse fill="none" stroke="black" cx="4923" cy="-312" rx="253.277" ry="48.1667"/>
<text text-anchor="middle" x="4923" y="-330.8" font-family="Times,serif" font-size="14.00">&quot;uid=cc011526&#45;208a&#45;48a6&#45;ada1&#45;961e74aa703c</text>
<text text-anchor="middle" x="4923" y="-315.8" font-family="Times,serif" font-size="14.00">namespace=kube&#45;system</text>
<text text-anchor="middle" x="4923" y="-300.8" font-family="Times,serif" font-size="14.00">ControllerRevision.v1.apps/kube&#45;flannel&#45;ds&#45;s390x&#45;5f78d7455d</text>
<text text-anchor="middle" x="4923" y="-285.8" font-family="Times,serif" font-size="14.00">&quot;</text>
</g>
<!-- 26 -->
<g id="node27" class="node"><title>26</title>
<ellipse fill="none" stroke="black" cx="4923" cy="-180" rx="190.378" ry="48.1667"/>
<text text-anchor="middle" x="4923" y="-198.8" font-family="Times,serif" font-size="14.00">&quot;uid=acf1040d&#45;2ee0&#45;46d7&#45;bcc4&#45;92b3b1ff5d39</text>
<text text-anchor="middle" x="4923" y="-183.8" font-family="Times,serif" font-size="14.00">namespace=kube&#45;system</text>
<text text-anchor="middle" x="4923" y="-168.8" font-family="Times,serif" font-size="14.00">DaemonSet.v1.apps/kube&#45;flannel&#45;ds&#45;s390x</text>
<text text-anchor="middle" x="4923" y="-153.8" font-family="Times,serif" font-size="14.00">&quot;</text>
</g>
<!-- 7&#45;&gt;26 -->
<g id="edge6" class="edge"><title>7&#45;&gt;26</title>
<path fill="none" stroke="black" d="M4923,-263.699C4923,-255.544 4923,-246.987 4923,-238.597"/>
<polygon fill="black" stroke="black" points="4926.5,-238.483 4923,-228.483 4919.5,-238.483 4926.5,-238.483"/>
</g>
<!-- 8 -->
<g id="node9" class="node"><title>8</title>
<ellipse fill="none" stroke="black" cx="5390" cy="-312" rx="195.242" ry="48.1667"/>
<text text-anchor="middle" x="5390" y="-330.8" font-family="Times,serif" font-size="14.00">&quot;uid=1514da76&#45;327e&#45;40b2&#45;87d0&#45;8fd08717e42a</text>
<text text-anchor="middle" x="5390" y="-315.8" font-family="Times,serif" font-size="14.00">namespace=kube&#45;system</text>
<text text-anchor="middle" x="5390" y="-300.8" font-family="Times,serif" font-size="14.00">Pod.v1/coredns&#45;66bff467f8&#45;qr888</text>
<text text-anchor="middle" x="5390" y="-285.8" font-family="Times,serif" font-size="14.00">&quot;</text>
</g>
<!-- 21 -->
<g id="node22" class="node"><title>21</title>
<ellipse fill="none" stroke="black" cx="5594" cy="-180" rx="195.303" ry="48.1667"/>
<text text-anchor="middle" x="5594" y="-198.8" font-family="Times,serif" font-size="14.00">&quot;uid=bb906c8e&#45;2676&#45;4ca5&#45;a1e3&#45;85247785c67b</text>
<text text-anchor="middle" x="5594" y="-183.8" font-family="Times,serif" font-size="14.00">namespace=kube&#45;system</text>
<text text-anchor="middle" x="5594" y="-168.8" font-family="Times,serif" font-size="14.00">ReplicaSet.v1.apps/coredns&#45;66bff467f8</text>
<text text-anchor="middle" x="5594" y="-153.8" font-family="Times,serif" font-size="14.00">&quot;</text>
</g>
<!-- 8&#45;&gt;21 -->
<g id="edge7" class="edge"><title>8&#45;&gt;21</title>
<path fill="none" stroke="black" d="M5459.07,-266.988C5477.41,-255.298 5497.34,-242.594 5516.12,-230.628"/>
<polygon fill="black" stroke="black" points="5518.11,-233.514 5524.66,-225.188 5514.34,-227.61 5518.11,-233.514"/>
</g>
<!-- 9 -->
<g id="node10" class="node"><title>9</title>
<ellipse fill="none" stroke="black" cx="6242" cy="-312" rx="231.336" ry="48.1667"/>
<text text-anchor="middle" x="6242" y="-330.8" font-family="Times,serif" font-size="14.00">&quot;uid=063ffa13&#45;0d57&#45;49e7&#45;a691&#45;e9c26120e221</text>
<text text-anchor="middle" x="6242" y="-315.8" font-family="Times,serif" font-size="14.00">namespace=default</text>
<text text-anchor="middle" x="6242" y="-300.8" font-family="Times,serif" font-size="14.00">EndpointSlice.v1beta1.discovery.k8s.io/my&#45;service&#45;rk8qs</text>
<text text-anchor="middle" x="6242" y="-285.8" font-family="Times,serif" font-size="14.00">&quot;</text>
</g>
<!-- 29 -->
<g id="node30" class="node"><title>29</title>
<ellipse fill="none" stroke="black" cx="6242" cy="-180" rx="191.439" ry="48.1667"/>
<text text-anchor="middle" x="6242" y="-198.8" font-family="Times,serif" font-size="14.00">&quot;uid=7ecfde27&#45;418d&#45;4aed&#45;b417&#45;c45b09054fe7</text>
<text text-anchor="middle" x="6242" y="-183.8" font-family="Times,serif" font-size="14.00">namespace=default</text>
<text text-anchor="middle" x="6242" y="-168.8" font-family="Times,serif" font-size="14.00">Service.v1/my&#45;service</text>
<text text-anchor="middle" x="6242" y="-153.8" font-family="Times,serif" font-size="14.00">&quot;</text>
</g>
<!-- 9&#45;&gt;29 -->
<g id="edge8" class="edge"><title>9&#45;&gt;29</title>
<path fill="none" stroke="black" d="M6242,-263.699C6242,-255.544 6242,-246.987 6242,-238.597"/>
<polygon fill="black" stroke="black" points="6245.5,-238.483 6242,-228.483 6238.5,-238.483 6245.5,-238.483"/>
</g>
<!-- 10 -->
<g id="node11" class="node"><title>10</title>
<ellipse fill="none" stroke="black" cx="6680" cy="-312" rx="188.197" ry="48.1667"/>
<text text-anchor="middle" x="6680" y="-330.8" font-family="Times,serif" font-size="14.00">&quot;uid=26e4379f&#45;bbc8&#45;4c49&#45;9ff7&#45;799bf3df5854</text>
<text text-anchor="middle" x="6680" y="-315.8" font-family="Times,serif" font-size="14.00">namespace=kube&#45;system</text>
<text text-anchor="middle" x="6680" y="-300.8" font-family="Times,serif" font-size="14.00">Pod.v1/kube&#45;flannel&#45;ds&#45;amd64&#45;nkrbw</text>
<text text-anchor="middle" x="6680" y="-285.8" font-family="Times,serif" font-size="14.00">&quot;</text>
</g>
<!-- 43 -->
<g id="node44" class="node"><title>43</title>
<ellipse fill="none" stroke="black" cx="7963" cy="-180" rx="186.514" ry="48.1667"/>
<text text-anchor="middle" x="7963" y="-198.8" font-family="Times,serif" font-size="14.00">&quot;uid=e0f53ad2&#45;c06f&#45;48af&#45;ae18&#45;c315417c6fac</text>
<text text-anchor="middle" x="7963" y="-183.8" font-family="Times,serif" font-size="14.00">namespace=kube&#45;system</text>
<text text-anchor="middle" x="7963" y="-168.8" font-family="Times,serif" font-size="14.00">DaemonSet.v1.apps/kube&#45;flannel&#45;ds&#45;amd64</text>
<text text-anchor="middle" x="7963" y="-153.8" font-family="Times,serif" font-size="14.00">&quot;</text>
</g>
<!-- 10&#45;&gt;43 -->
<g id="edge9" class="edge"><title>10&#45;&gt;43</title>
<path fill="none" stroke="black" d="M6809.89,-277.105C6832.48,-272.091 6855.83,-267.457 6878,-264 7186.92,-215.823 7549.88,-195.248 7767.9,-186.722"/>
<polygon fill="black" stroke="black" points="7768.31,-190.209 7778.17,-186.325 7768.04,-183.214 7768.31,-190.209"/>
</g>
<!-- 11 -->
<g id="node12" class="node"><title>11</title>
<ellipse fill="none" stroke="black" cx="2666" cy="-312" rx="224.29" ry="48.1667"/>
<text text-anchor="middle" x="2666" y="-330.8" font-family="Times,serif" font-size="14.00">&quot;uid=8778781c&#45;6404&#45;4c8b&#45;8caa&#45;656164441298</text>
<text text-anchor="middle" x="2666" y="-315.8" font-family="Times,serif" font-size="14.00">namespace=kube&#45;system</text>
<text text-anchor="middle" x="2666" y="-300.8" font-family="Times,serif" font-size="14.00">EndpointSlice.v1beta1.discovery.k8s.io/kube&#45;dns&#45;89jcn</text>
<text text-anchor="middle" x="2666" y="-285.8" font-family="Times,serif" font-size="14.00">&quot;</text>
</g>
<!-- 11&#45;&gt;1 -->
<g id="edge10" class="edge"><title>11&#45;&gt;1</title>
<path fill="none" stroke="black" d="M2666,-263.699C2666,-255.544 2666,-246.987 2666,-238.597"/>
<polygon fill="black" stroke="black" points="2669.5,-238.483 2666,-228.483 2662.5,-238.483 2669.5,-238.483"/>
</g>
<!-- 12 -->
<g id="node13" class="node"><title>12</title>
<ellipse fill="none" stroke="black" cx="7081" cy="-312" rx="194.182" ry="48.1667"/>
<text text-anchor="middle" x="7081" y="-330.8" font-family="Times,serif" font-size="14.00">&quot;uid=9303ba5a&#45;56ce&#45;434d&#45;89fb&#45;e6c92758b4a7</text>
<text text-anchor="middle" x="7081" y="-315.8" font-family="Times,serif" font-size="14.00">namespace=kube&#45;system</text>
<text text-anchor="middle" x="7081" y="-300.8" font-family="Times,serif" font-size="14.00">Pod.v1/kube&#45;flannel&#45;ds&#45;amd64&#45;4fp7n</text>
<text text-anchor="middle" x="7081" y="-285.8" font-family="Times,serif" font-size="14.00">&quot;</text>
</g>
<!-- 12&#45;&gt;43 -->
<g id="edge11" class="edge"><title>12&#45;&gt;43</title>
<path fill="none" stroke="black" d="M7216.54,-277.526C7238.99,-272.584 7262.09,-267.864 7284,-264 7450.44,-234.644 7641.67,-212.277 7778.68,-198.2"/>
<polygon fill="black" stroke="black" points="7779.27,-201.658 7788.87,-197.159 7778.56,-194.694 7779.27,-201.658"/>
</g>
<!-- 13 -->
<g id="node14" class="node"><title>13</title>
<ellipse fill="none" stroke="black" cx="5594" cy="-48" rx="190.378" ry="48.1667"/>
<text text-anchor="middle" x="5594" y="-66.8" font-family="Times,serif" font-size="14.00">&quot;uid=330678a3&#45;4e4d&#45;4c7f&#45;9706&#45;f75bf72a4ee3</text>
<text text-anchor="middle" x="5594" y="-51.8" font-family="Times,serif" font-size="14.00">namespace=kube&#45;system</text>
<text text-anchor="middle" x="5594" y="-36.8" font-family="Times,serif" font-size="14.00">Deployment.v1.apps/coredns</text>
<text text-anchor="middle" x="5594" y="-21.8" font-family="Times,serif" font-size="14.00">&quot;</text>
</g>
<!-- 14 -->
<g id="node15" class="node"><title>14</title>
<ellipse fill="none" stroke="black" cx="8435" cy="-312" rx="195.303" ry="48.1667"/>
<text text-anchor="middle" x="8435" y="-330.8" font-family="Times,serif" font-size="14.00">&quot;uid=284a013c&#45;b338&#45;451e&#45;95bd&#45;d5bea1641cc4</text>
<text text-anchor="middle" x="8435" y="-315.8" font-family="Times,serif" font-size="14.00">namespace=kube&#45;system</text>
<text text-anchor="middle" x="8435" y="-300.8" font-family="Times,serif" font-size="14.00">Pod.v1/kube&#45;proxy&#45;xswkf</text>
<text text-anchor="middle" x="8435" y="-285.8" font-family="Times,serif" font-size="14.00">&quot;</text>
</g>
<!-- 19 -->
<g id="node20" class="node"><title>19</title>
<ellipse fill="none" stroke="black" cx="9672" cy="-180" rx="193.06" ry="48.1667"/>
<text text-anchor="middle" x="9672" y="-198.8" font-family="Times,serif" font-size="14.00">&quot;uid=af875190&#45;0431&#45;4c77&#45;a00c&#45;ef618d59d97e</text>
<text text-anchor="middle" x="9672" y="-183.8" font-family="Times,serif" font-size="14.00">namespace=kube&#45;system</text>
<text text-anchor="middle" x="9672" y="-168.8" font-family="Times,serif" font-size="14.00">DaemonSet.v1.apps/kube&#45;proxy</text>
<text text-anchor="middle" x="9672" y="-153.8" font-family="Times,serif" font-size="14.00">&quot;</text>
</g>
<!-- 14&#45;&gt;19 -->
<g id="edge12" class="edge"><title>14&#45;&gt;19</title>
<path fill="none" stroke="black" d="M8569.82,-277.168C8593.11,-272.163 8617.17,-267.515 8640,-264 8926.87,-219.818 9262.45,-198.35 9471.15,-188.52"/>
<polygon fill="black" stroke="black" points="9471.48,-192.009 9481.31,-188.046 9471.15,-185.016 9471.48,-192.009"/>
</g>
<!-- 16 -->
<g id="node17" class="node"><title>16</title>
<ellipse fill="none" stroke="black" cx="8842" cy="-312" rx="193.06" ry="48.1667"/>
<text text-anchor="middle" x="8842" y="-330.8" font-family="Times,serif" font-size="14.00">&quot;uid=066fa828&#45;79ce&#45;4b2d&#45;a4f0&#45;8868084ccd1b</text>
<text text-anchor="middle" x="8842" y="-315.8" font-family="Times,serif" font-size="14.00">namespace=kube&#45;system</text>
<text text-anchor="middle" x="8842" y="-300.8" font-family="Times,serif" font-size="14.00">Pod.v1/kube&#45;proxy&#45;p8lxm</text>
<text text-anchor="middle" x="8842" y="-285.8" font-family="Times,serif" font-size="14.00">&quot;</text>
</g>
<!-- 16&#45;&gt;19 -->
<g id="edge13" class="edge"><title>16&#45;&gt;19</title>
<path fill="none" stroke="black" d="M8977.17,-277.639C8999.42,-272.698 9022.3,-267.948 9044,-264 9191.62,-237.138 9360.26,-215.334 9485.59,-200.826"/>
<polygon fill="black" stroke="black" points="9486.14,-204.285 9495.67,-199.663 9485.34,-197.331 9486.14,-204.285"/>
</g>
<!-- 17 -->
<g id="node18" class="node"><title>17</title>
<ellipse fill="none" stroke="black" cx="10105" cy="-180" rx="222.047" ry="48.1667"/>
<text text-anchor="middle" x="10105" y="-198.8" font-family="Times,serif" font-size="14.00">&quot;uid=0a49ad37&#45;95ed&#45;472c&#45;bfff&#45;71de8cdc1edb</text>
<text text-anchor="middle" x="10105" y="-183.8" font-family="Times,serif" font-size="14.00">namespace=kubernetes&#45;dashboard</text>
<text text-anchor="middle" x="10105" y="-168.8" font-family="Times,serif" font-size="14.00">ReplicaSet.v1.apps/kubernetes&#45;dashboard&#45;675d89f866</text>
<text text-anchor="middle" x="10105" y="-153.8" font-family="Times,serif" font-size="14.00">&quot;</text>
</g>
<!-- 47 -->
<g id="node48" class="node"><title>47</title>
<ellipse fill="none" stroke="black" cx="10105" cy="-48" rx="196.363" ry="48.1667"/>
<text text-anchor="middle" x="10105" y="-66.8" font-family="Times,serif" font-size="14.00">&quot;uid=790d6158&#45;8707&#45;4adc&#45;a27c&#45;7a42673d3934</text>
<text text-anchor="middle" x="10105" y="-51.8" font-family="Times,serif" font-size="14.00">namespace=kubernetes&#45;dashboard</text>
<text text-anchor="middle" x="10105" y="-36.8" font-family="Times,serif" font-size="14.00">Deployment.v1.apps/kubernetes&#45;dashboard</text>
<text text-anchor="middle" x="10105" y="-21.8" font-family="Times,serif" font-size="14.00">&quot;</text>
</g>
<!-- 17&#45;&gt;47 -->
<g id="edge14" class="edge"><title>17&#45;&gt;47</title>
<path fill="none" stroke="black" d="M10105,-131.699C10105,-123.544 10105,-114.987 10105,-106.597"/>
<polygon fill="black" stroke="black" points="10108.5,-106.483 10105,-96.4834 10101.5,-106.483 10108.5,-106.483"/>
</g>
<!-- 18 -->
<g id="node19" class="node"><title>18</title>
<ellipse fill="none" stroke="black" cx="9250" cy="-312" rx="196.363" ry="48.1667"/>
<text text-anchor="middle" x="9250" y="-330.8" font-family="Times,serif" font-size="14.00">&quot;uid=0f2d5d83&#45;c795&#45;47ba&#45;a994&#45;9b0d48b10929</text>
<text text-anchor="middle" x="9250" y="-315.8" font-family="Times,serif" font-size="14.00">namespace=kube&#45;system</text>
<text text-anchor="middle" x="9250" y="-300.8" font-family="Times,serif" font-size="14.00">Pod.v1/kube&#45;proxy&#45;r4w6q</text>
<text text-anchor="middle" x="9250" y="-285.8" font-family="Times,serif" font-size="14.00">&quot;</text>
</g>
<!-- 18&#45;&gt;19 -->
<g id="edge15" class="edge"><title>18&#45;&gt;19</title>
<path fill="none" stroke="black" d="M9370.36,-273.921C9424.26,-257.319 9487.89,-237.717 9542.78,-220.806"/>
<polygon fill="black" stroke="black" points="9544.05,-224.08 9552.57,-217.791 9541.98,-217.39 9544.05,-224.08"/>
</g>
<!-- 20 -->
<g id="node21" class="node"><title>20</title>
<ellipse fill="none" stroke="black" cx="7490" cy="-312" rx="196.363" ry="48.1667"/>
<text text-anchor="middle" x="7490" y="-330.8" font-family="Times,serif" font-size="14.00">&quot;uid=725f24e8&#45;6ab3&#45;48eb&#45;bb43&#45;479bbbd80301</text>
<text text-anchor="middle" x="7490" y="-315.8" font-family="Times,serif" font-size="14.00">namespace=kube&#45;system</text>
<text text-anchor="middle" x="7490" y="-300.8" font-family="Times,serif" font-size="14.00">Pod.v1/kube&#45;flannel&#45;ds&#45;amd64&#45;kggt7</text>
<text text-anchor="middle" x="7490" y="-285.8" font-family="Times,serif" font-size="14.00">&quot;</text>
</g>
<!-- 20&#45;&gt;43 -->
<g id="edge16" class="edge"><title>20&#45;&gt;43</title>
<path fill="none" stroke="black" d="M7618.62,-275.649C7683.29,-257.877 7761.64,-236.342 7827.26,-218.306"/>
<polygon fill="black" stroke="black" points="7828.55,-221.582 7837.26,-215.557 7826.69,-214.833 7828.55,-221.582"/>
</g>
<!-- 21&#45;&gt;13 -->
<g id="edge17" class="edge"><title>21&#45;&gt;13</title>
<path fill="none" stroke="black" d="M5594,-131.699C5594,-123.544 5594,-114.987 5594,-106.597"/>
<polygon fill="black" stroke="black" points="5597.5,-106.483 5594,-96.4834 5590.5,-106.483 5597.5,-106.483"/>
</g>
<!-- 22 -->
<g id="node23" class="node"><title>22</title>
<ellipse fill="none" stroke="black" cx="10595" cy="-312" rx="275.158" ry="48.1667"/>
<text text-anchor="middle" x="10595" y="-330.8" font-family="Times,serif" font-size="14.00">&quot;uid=92a31444&#45;efcf&#45;4465&#45;aa5c&#45;7f7f83bb5d97</text>
<text text-anchor="middle" x="10595" y="-315.8" font-family="Times,serif" font-size="14.00">namespace=kubernetes&#45;dashboard</text>
<text text-anchor="middle" x="10595" y="-300.8" font-family="Times,serif" font-size="14.00">EndpointSlice.v1beta1.discovery.k8s.io/kubernetes&#45;dashboard&#45;nldwg</text>
<text text-anchor="middle" x="10595" y="-285.8" font-family="Times,serif" font-size="14.00">&quot;</text>
</g>
<!-- 23 -->
<g id="node24" class="node"><title>23</title>
<ellipse fill="none" stroke="black" cx="10595" cy="-180" rx="192" ry="48.1667"/>
<text text-anchor="middle" x="10595" y="-198.8" font-family="Times,serif" font-size="14.00">&quot;uid=ed419aaa&#45;c982&#45;4cc6&#45;90a2&#45;2a135cbece09</text>
<text text-anchor="middle" x="10595" y="-183.8" font-family="Times,serif" font-size="14.00">namespace=kubernetes&#45;dashboard</text>
<text text-anchor="middle" x="10595" y="-168.8" font-family="Times,serif" font-size="14.00">Service.v1/kubernetes&#45;dashboard</text>
<text text-anchor="middle" x="10595" y="-153.8" font-family="Times,serif" font-size="14.00">&quot;</text>
</g>
<!-- 22&#45;&gt;23 -->
<g id="edge18" class="edge"><title>22&#45;&gt;23</title>
<path fill="none" stroke="black" d="M10595,-263.699C10595,-255.544 10595,-246.987 10595,-238.597"/>
<polygon fill="black" stroke="black" points="10598.5,-238.483 10595,-228.483 10591.5,-238.483 10598.5,-238.483"/>
</g>
<!-- 24 -->
<g id="node25" class="node"><title>24</title>
<ellipse fill="none" stroke="black" cx="1008" cy="-312" rx="193.06" ry="48.1667"/>
<text text-anchor="middle" x="1008" y="-330.8" font-family="Times,serif" font-size="14.00">&quot;uid=ed9e2bd0&#45;0d9a&#45;4f5c&#45;bc00&#45;895df3ad7921</text>
<text text-anchor="middle" x="1008" y="-315.8" font-family="Times,serif" font-size="14.00">namespace=kube&#45;node&#45;lease</text>
<text text-anchor="middle" x="1008" y="-300.8" font-family="Times,serif" font-size="14.00">Lease.v1.coordination.k8s.io/master</text>
<text text-anchor="middle" x="1008" y="-285.8" font-family="Times,serif" font-size="14.00">&quot;</text>
</g>
<!-- 24&#45;&gt;45 -->
<g id="edge19" class="edge"><title>24&#45;&gt;45</title>
<path fill="none" stroke="black" d="M1076.73,-266.988C1094.98,-255.298 1114.82,-242.594 1133.5,-230.628"/>
<polygon fill="black" stroke="black" points="1135.47,-233.528 1142,-225.188 1131.69,-227.633 1135.47,-233.528"/>
</g>
<!-- 25 -->
<g id="node26" class="node"><title>25</title>
<ellipse fill="none" stroke="black" cx="11181" cy="-180" rx="190.318" ry="48.1667"/>
<text text-anchor="middle" x="11181" y="-198.8" font-family="Times,serif" font-size="14.00">&quot;uid=fee38141&#45;e3e6&#45;4b95&#45;81ee&#45;7c55bafb0f43</text>
<text text-anchor="middle" x="11181" y="-183.8" font-family="Times,serif" font-size="14.00">namespace=kubernetes&#45;dashboard</text>
<text text-anchor="middle" x="11181" y="-168.8" font-family="Times,serif" font-size="14.00">Service.v1/dashboard&#45;metrics&#45;scraper</text>
<text text-anchor="middle" x="11181" y="-153.8" font-family="Times,serif" font-size="14.00">&quot;</text>
</g>
<!-- 27 -->
<g id="node28" class="node"><title>27</title>
<ellipse fill="none" stroke="black" cx="11751" cy="-312" rx="260.323" ry="48.1667"/>
<text text-anchor="middle" x="11751" y="-330.8" font-family="Times,serif" font-size="14.00">&quot;uid=d82726c1&#45;5cba&#45;4d11&#45;a5d8&#45;d9b922b31706</text>
<text text-anchor="middle" x="11751" y="-315.8" font-family="Times,serif" font-size="14.00">namespace=kube&#45;system</text>
<text text-anchor="middle" x="11751" y="-300.8" font-family="Times,serif" font-size="14.00">ControllerRevision.v1.apps/kube&#45;flannel&#45;ds&#45;ppc64le&#45;57f6f656c9</text>
<text text-anchor="middle" x="11751" y="-285.8" font-family="Times,serif" font-size="14.00">&quot;</text>
</g>
<!-- 35 -->
<g id="node36" class="node"><title>35</title>
<ellipse fill="none" stroke="black" cx="11751" cy="-180" rx="188.136" ry="48.1667"/>
<text text-anchor="middle" x="11751" y="-198.8" font-family="Times,serif" font-size="14.00">&quot;uid=11bf3eb9&#45;c8fe&#45;4f09&#45;b1db&#45;787eebec0bfd</text>
<text text-anchor="middle" x="11751" y="-183.8" font-family="Times,serif" font-size="14.00">namespace=kube&#45;system</text>
<text text-anchor="middle" x="11751" y="-168.8" font-family="Times,serif" font-size="14.00">DaemonSet.v1.apps/kube&#45;flannel&#45;ds&#45;ppc64le</text>
<text text-anchor="middle" x="11751" y="-153.8" font-family="Times,serif" font-size="14.00">&quot;</text>
</g>
<!-- 27&#45;&gt;35 -->
<g id="edge20" class="edge"><title>27&#45;&gt;35</title>
<path fill="none" stroke="black" d="M11751,-263.699C11751,-255.544 11751,-246.987 11751,-238.597"/>
<polygon fill="black" stroke="black" points="11754.5,-238.483 11751,-228.483 11747.5,-238.483 11754.5,-238.483"/>
</g>
<!-- 30 -->
<g id="node31" class="node"><title>30</title>
<ellipse fill="none" stroke="black" cx="4437" cy="-312" rx="213.88" ry="48.1667"/>
<text text-anchor="middle" x="4437" y="-330.8" font-family="Times,serif" font-size="14.00">&quot;uid=77f4150c&#45;e986&#45;4f80&#45;bb98&#45;00c2ef15076c</text>
<text text-anchor="middle" x="4437" y="-315.8" font-family="Times,serif" font-size="14.00">namespace=kubernetes&#45;dashboard</text>
<text text-anchor="middle" x="4437" y="-300.8" font-family="Times,serif" font-size="14.00">Pod.v1/dashboard&#45;metrics&#45;scraper&#45;bb46cc778&#45;wd9jg</text>
<text text-anchor="middle" x="4437" y="-285.8" font-family="Times,serif" font-size="14.00">&quot;</text>
</g>
<!-- 30&#45;&gt;4 -->
<g id="edge21" class="edge"><title>30&#45;&gt;4</title>
<path fill="none" stroke="black" d="M4437,-263.699C4437,-255.544 4437,-246.987 4437,-238.597"/>
<polygon fill="black" stroke="black" points="4440.5,-238.483 4437,-228.483 4433.5,-238.483 4440.5,-238.483"/>
</g>
<!-- 31 -->
<g id="node32" class="node"><title>31</title>
<ellipse fill="none" stroke="black" cx="12282" cy="-312" rx="253.216" ry="48.1667"/>
<text text-anchor="middle" x="12282" y="-330.8" font-family="Times,serif" font-size="14.00">&quot;uid=5552ba5f&#45;f20e&#45;47d2&#45;8e62&#45;d102cc34639c</text>
<text text-anchor="middle" x="12282" y="-315.8" font-family="Times,serif" font-size="14.00">namespace=kube&#45;system</text>
<text text-anchor="middle" x="12282" y="-300.8" font-family="Times,serif" font-size="14.00">ControllerRevision.v1.apps/kube&#45;flannel&#45;ds&#45;arm64&#45;bc5b76979</text>
<text text-anchor="middle" x="12282" y="-285.8" font-family="Times,serif" font-size="14.00">&quot;</text>
</g>
<!-- 36 -->
<g id="node37" class="node"><title>36</title>
<ellipse fill="none" stroke="black" cx="12282" cy="-180" rx="192" ry="48.1667"/>
<text text-anchor="middle" x="12282" y="-198.8" font-family="Times,serif" font-size="14.00">&quot;uid=8f0ee4a4&#45;b25a&#45;424b&#45;a2aa&#45;ee42c1a10205</text>
<text text-anchor="middle" x="12282" y="-183.8" font-family="Times,serif" font-size="14.00">namespace=kube&#45;system</text>
<text text-anchor="middle" x="12282" y="-168.8" font-family="Times,serif" font-size="14.00">DaemonSet.v1.apps/kube&#45;flannel&#45;ds&#45;arm64</text>
<text text-anchor="middle" x="12282" y="-153.8" font-family="Times,serif" font-size="14.00">&quot;</text>
</g>
<!-- 31&#45;&gt;36 -->
<g id="edge22" class="edge"><title>31&#45;&gt;36</title>
<path fill="none" stroke="black" d="M12282,-263.699C12282,-255.544 12282,-246.987 12282,-238.597"/>
<polygon fill="black" stroke="black" points="12285.5,-238.483 12282,-228.483 12278.5,-238.483 12285.5,-238.483"/>
</g>
<!-- 32 -->
<g id="node33" class="node"><title>32</title>
<ellipse fill="none" stroke="black" cx="10105" cy="-312" rx="195.303" ry="48.1667"/>
<text text-anchor="middle" x="10105" y="-330.8" font-family="Times,serif" font-size="14.00">&quot;uid=ade974b8&#45;18a6&#45;47e0&#45;a04a&#45;69030335d2cb</text>
<text text-anchor="middle" x="10105" y="-315.8" font-family="Times,serif" font-size="14.00">namespace=kubernetes&#45;dashboard</text>
<text text-anchor="middle" x="10105" y="-300.8" font-family="Times,serif" font-size="14.00">Pod.v1/kubernetes&#45;dashboard&#45;675d89f866&#45;rjjcv</text>
<text text-anchor="middle" x="10105" y="-285.8" font-family="Times,serif" font-size="14.00">&quot;</text>
</g>
<!-- 32&#45;&gt;17 -->
<g id="edge23" class="edge"><title>32&#45;&gt;17</title>
<path fill="none" stroke="black" d="M10105,-263.699C10105,-255.544 10105,-246.987 10105,-238.597"/>
<polygon fill="black" stroke="black" points="10108.5,-238.483 10105,-228.483 10101.5,-238.483 10108.5,-238.483"/>
</g>
<!-- 33 -->
<g id="node34" class="node"><title>33</title>
<ellipse fill="none" stroke="black" cx="12941" cy="-180" rx="194.182" ry="48.1667"/>
<text text-anchor="middle" x="12941" y="-198.8" font-family="Times,serif" font-size="14.00">&quot;uid=23f2cb17&#45;c78e&#45;4685&#45;9896&#45;3b25f4952042</text>
<text text-anchor="middle" x="12941" y="-183.8" font-family="Times,serif" font-size="14.00">namespace=</text>
<text text-anchor="middle" x="12941" y="-168.8" font-family="Times,serif" font-size="14.00">Node.v1/node1</text>
<text text-anchor="middle" x="12941" y="-153.8" font-family="Times,serif" font-size="14.00">&quot;</text>
</g>
<!-- 34 -->
<g id="node35" class="node"><title>34</title>
<ellipse fill="none" stroke="black" cx="9672" cy="-312" rx="207.334" ry="48.1667"/>
<text text-anchor="middle" x="9672" y="-330.8" font-family="Times,serif" font-size="14.00">&quot;uid=1774350a&#45;2004&#45;4438&#45;bbdf&#45;904b72e8fa4a</text>
<text text-anchor="middle" x="9672" y="-315.8" font-family="Times,serif" font-size="14.00">namespace=kube&#45;system</text>
<text text-anchor="middle" x="9672" y="-300.8" font-family="Times,serif" font-size="14.00">ControllerRevision.v1.apps/kube&#45;proxy&#45;c8bb659c5</text>
<text text-anchor="middle" x="9672" y="-285.8" font-family="Times,serif" font-size="14.00">&quot;</text>
</g>
<!-- 34&#45;&gt;19 -->
<g id="edge24" class="edge"><title>34&#45;&gt;19</title>
<path fill="none" stroke="black" d="M9672,-263.699C9672,-255.544 9672,-246.987 9672,-238.597"/>
<polygon fill="black" stroke="black" points="9675.5,-238.483 9672,-228.483 9668.5,-238.483 9675.5,-238.483"/>
</g>
<!-- 37 -->
<g id="node38" class="node"><title>37</title>
<ellipse fill="none" stroke="black" cx="1415" cy="-312" rx="195.303" ry="48.1667"/>
<text text-anchor="middle" x="1415" y="-330.8" font-family="Times,serif" font-size="14.00">&quot;uid=4d40cde1&#45;b56b&#45;4e13&#45;b8a1&#45;5130b4a916ea</text>
<text text-anchor="middle" x="1415" y="-315.8" font-family="Times,serif" font-size="14.00">namespace=kube&#45;system</text>
<text text-anchor="middle" x="1415" y="-300.8" font-family="Times,serif" font-size="14.00">Pod.v1/kube&#45;apiserver&#45;master</text>
<text text-anchor="middle" x="1415" y="-285.8" font-family="Times,serif" font-size="14.00">&quot;</text>
</g>
<!-- 37&#45;&gt;45 -->
<g id="edge25" class="edge"><title>37&#45;&gt;45</title>
<path fill="none" stroke="black" d="M1345.93,-266.988C1327.59,-255.298 1307.66,-242.594 1288.88,-230.628"/>
<polygon fill="black" stroke="black" points="1290.66,-227.61 1280.34,-225.188 1286.89,-233.514 1290.66,-227.61"/>
</g>
<!-- 38 -->
<g id="node39" class="node"><title>38</title>
<ellipse fill="none" stroke="black" cx="11181" cy="-312" rx="292.053" ry="48.1667"/>
<text text-anchor="middle" x="11181" y="-330.8" font-family="Times,serif" font-size="14.00">&quot;uid=29adc21e&#45;f92a&#45;4a68&#45;b405&#45;4649c99493c1</text>
<text text-anchor="middle" x="11181" y="-315.8" font-family="Times,serif" font-size="14.00">namespace=kubernetes&#45;dashboard</text>
<text text-anchor="middle" x="11181" y="-300.8" font-family="Times,serif" font-size="14.00">EndpointSlice.v1beta1.discovery.k8s.io/dashboard&#45;metrics&#45;scraper&#45;crcmf</text>
<text text-anchor="middle" x="11181" y="-285.8" font-family="Times,serif" font-size="14.00">&quot;</text>
</g>
<!-- 38&#45;&gt;25 -->
<g id="edge26" class="edge"><title>38&#45;&gt;25</title>
<path fill="none" stroke="black" d="M11181,-263.699C11181,-255.544 11181,-246.987 11181,-238.597"/>
<polygon fill="black" stroke="black" points="11184.5,-238.483 11181,-228.483 11177.5,-238.483 11184.5,-238.483"/>
</g>
<!-- 39 -->
<g id="node40" class="node"><title>39</title>
<ellipse fill="none" stroke="black" cx="1827" cy="-312" rx="197.485" ry="48.1667"/>
<text text-anchor="middle" x="1827" y="-330.8" font-family="Times,serif" font-size="14.00">&quot;uid=6da58970&#45;0893&#45;4054&#45;b4ad&#45;2725201d265c</text>
<text text-anchor="middle" x="1827" y="-315.8" font-family="Times,serif" font-size="14.00">namespace=kube&#45;system</text>
<text text-anchor="middle" x="1827" y="-300.8" font-family="Times,serif" font-size="14.00">Pod.v1/kube&#45;scheduler&#45;master</text>
<text text-anchor="middle" x="1827" y="-285.8" font-family="Times,serif" font-size="14.00">&quot;</text>
</g>
<!-- 39&#45;&gt;45 -->
<g id="edge27" class="edge"><title>39&#45;&gt;45</title>
<path fill="none" stroke="black" d="M1684.99,-278.483C1662.92,-273.552 1640.36,-268.585 1619,-264 1537.5,-246.504 1446.63,-227.928 1371.37,-212.795"/>
<polygon fill="black" stroke="black" points="1371.83,-209.316 1361.33,-210.778 1370.45,-216.179 1371.83,-209.316"/>
</g>
<!-- 40 -->
<g id="node41" class="node"><title>40</title>
<ellipse fill="none" stroke="black" cx="2233" cy="-312" rx="190.318" ry="48.1667"/>
<text text-anchor="middle" x="2233" y="-330.8" font-family="Times,serif" font-size="14.00">&quot;uid=61264ffa&#45;c157&#45;40ca&#45;91df&#45;869202ee433d</text>
<text text-anchor="middle" x="2233" y="-315.8" font-family="Times,serif" font-size="14.00">namespace=</text>
<text text-anchor="middle" x="2233" y="-300.8" font-family="Times,serif" font-size="14.00">CSINode.v1.storage.k8s.io/master</text>
<text text-anchor="middle" x="2233" y="-285.8" font-family="Times,serif" font-size="14.00">&quot;</text>
</g>
<!-- 40&#45;&gt;45 -->
<g id="edge28" class="edge"><title>40&#45;&gt;45</title>
<path fill="none" stroke="black" d="M2100.9,-277.399C2078.34,-272.398 2055.08,-267.692 2033,-264 1821.51,-228.627 1576.71,-206.263 1409.63,-193.777"/>
<polygon fill="black" stroke="black" points="1409.47,-190.256 1399.24,-193.006 1408.95,-197.237 1409.47,-190.256"/>
</g>
<!-- 41 -->
<g id="node42" class="node"><title>41</title>
<ellipse fill="none" stroke="black" cx="12741" cy="-312" rx="188.136" ry="48.1667"/>
<text text-anchor="middle" x="12741" y="-330.8" font-family="Times,serif" font-size="14.00">&quot;uid=c88f3f89&#45;9b9c&#45;4f3f&#45;bc80&#45;42ea86cf1d40</text>
<text text-anchor="middle" x="12741" y="-315.8" font-family="Times,serif" font-size="14.00">namespace=kube&#45;node&#45;lease</text>
<text text-anchor="middle" x="12741" y="-300.8" font-family="Times,serif" font-size="14.00">Lease.v1.coordination.k8s.io/node1</text>
<text text-anchor="middle" x="12741" y="-285.8" font-family="Times,serif" font-size="14.00">&quot;</text>
</g>
<!-- 41&#45;&gt;33 -->
<g id="edge29" class="edge"><title>41&#45;&gt;33</title>
<path fill="none" stroke="black" d="M12808.7,-266.988C12826.5,-255.404 12845.9,-242.823 12864.2,-230.951"/>
<polygon fill="black" stroke="black" points="12866.5,-233.572 12873,-225.188 12862.7,-227.703 12866.5,-233.572"/>
</g>
<!-- 42 -->
<g id="node43" class="node"><title>42</title>
<ellipse fill="none" stroke="black" cx="4009" cy="-312" rx="195.303" ry="48.1667"/>
<text text-anchor="middle" x="4009" y="-330.8" font-family="Times,serif" font-size="14.00">&quot;uid=5d88e59c&#45;0568&#45;4dcc&#45;b205&#45;8b2da5d1ae22</text>
<text text-anchor="middle" x="4009" y="-315.8" font-family="Times,serif" font-size="14.00">namespace=kube&#45;node&#45;lease</text>
<text text-anchor="middle" x="4009" y="-300.8" font-family="Times,serif" font-size="14.00">Lease.v1.coordination.k8s.io/node2</text>
<text text-anchor="middle" x="4009" y="-285.8" font-family="Times,serif" font-size="14.00">&quot;</text>
</g>
<!-- 42&#45;&gt;3 -->
<g id="edge30" class="edge"><title>42&#45;&gt;3</title>
<path fill="none" stroke="black" d="M3937.18,-267.169C3917.72,-255.29 3896.52,-242.353 3876.61,-230.199"/>
<polygon fill="black" stroke="black" points="3878.22,-227.084 3867.87,-224.862 3874.58,-233.059 3878.22,-227.084"/>
</g>
<!-- 44 -->
<g id="node45" class="node"><title>44</title>
<ellipse fill="none" stroke="black" cx="5798" cy="-312" rx="194.182" ry="48.1667"/>
<text text-anchor="middle" x="5798" y="-330.8" font-family="Times,serif" font-size="14.00">&quot;uid=14055c1d&#45;a951&#45;47dd&#45;9730&#45;fc3f27359523</text>
<text text-anchor="middle" x="5798" y="-315.8" font-family="Times,serif" font-size="14.00">namespace=kube&#45;system</text>
<text text-anchor="middle" x="5798" y="-300.8" font-family="Times,serif" font-size="14.00">Pod.v1/coredns&#45;66bff467f8&#45;qtpch</text>
<text text-anchor="middle" x="5798" y="-285.8" font-family="Times,serif" font-size="14.00">&quot;</text>
</g>
<!-- 44&#45;&gt;21 -->
<g id="edge31" class="edge"><title>44&#45;&gt;21</title>
<path fill="none" stroke="black" d="M5728.93,-266.988C5710.59,-255.298 5690.66,-242.594 5671.88,-230.628"/>
<polygon fill="black" stroke="black" points="5673.66,-227.61 5663.34,-225.188 5669.89,-233.514 5673.66,-227.61"/>
</g>
<!-- 46 -->
<g id="node47" class="node"><title>46</title>
<ellipse fill="none" stroke="black" cx="13141" cy="-312" rx="193.621" ry="48.1667"/>
<text text-anchor="middle" x="13141" y="-330.8" font-family="Times,serif" font-size="14.00">&quot;uid=0f4cae78&#45;b298&#45;4509&#45;8962&#45;f848eeb09d96</text>
<text text-anchor="middle" x="13141" y="-315.8" font-family="Times,serif" font-size="14.00">namespace=</text>
<text text-anchor="middle" x="13141" y="-300.8" font-family="Times,serif" font-size="14.00">CSINode.v1.storage.k8s.io/node1</text>
<text text-anchor="middle" x="13141" y="-285.8" font-family="Times,serif" font-size="14.00">&quot;</text>
</g>
<!-- 46&#45;&gt;33 -->
<g id="edge32" class="edge"><title>46&#45;&gt;33</title>
<path fill="none" stroke="black" d="M13073,-266.807C13055.2,-255.231 13035.9,-242.67 13017.7,-230.823"/>
<polygon fill="black" stroke="black" points="13019.1,-227.587 13008.8,-225.071 13015.3,-233.456 13019.1,-227.587"/>
</g>
<!-- 48 -->
<g id="node49" class="node"><title>48</title>
<ellipse fill="none" stroke="black" cx="7963" cy="-312" rx="258.141" ry="48.1667"/>
<text text-anchor="middle" x="7963" y="-330.8" font-family="Times,serif" font-size="14.00">&quot;uid=1a8ec836&#45;2261&#45;4335&#45;972b&#45;ab99c7da5e28</text>
<text text-anchor="middle" x="7963" y="-315.8" font-family="Times,serif" font-size="14.00">namespace=kube&#45;system</text>
<text text-anchor="middle" x="7963" y="-300.8" font-family="Times,serif" font-size="14.00">ControllerRevision.v1.apps/kube&#45;flannel&#45;ds&#45;amd64&#45;5b4497df8c</text>
<text text-anchor="middle" x="7963" y="-285.8" font-family="Times,serif" font-size="14.00">&quot;</text>
</g>
<!-- 48&#45;&gt;43 -->
<g id="edge33" class="edge"><title>48&#45;&gt;43</title>
<path fill="none" stroke="black" d="M7963,-263.699C7963,-255.544 7963,-246.987 7963,-238.597"/>
<polygon fill="black" stroke="black" points="7966.5,-238.483 7963,-228.483 7959.5,-238.483 7966.5,-238.483"/>
</g>
</g>
</svg>
